<?xml version="1.0" encoding="UTF-8"?>
<svg width="99px" height="32px" viewBox="0 0 99 32" version="1.1" xmlns="http://www.w3.org/2000/svg" xmlns:xlink="http://www.w3.org/1999/xlink">
    <!-- Generator: Sketch 57.1 (83088) - https://sketch.com -->
    <title>Logo</title>
    <desc>Created with Sketch.</desc>
    <defs>
        <polygon id="path-1" points="0.000239130435 0.6568 30.4328782 0.6568 30.4328782 31.19976 0.000239130435 31.19976"></polygon>
    </defs>
    <g id="Symbols-&amp;-Nav-Drawers" stroke="none" stroke-width="1" fill="none" fill-rule="evenodd">
        <g id="Navigation-/-Icons" transform="translate(-46.000000, 0.000000)">
            <g id="Logo" transform="translate(46.000000, 0.000000)">
                <g id="Group-3" transform="translate(0.000000, 0.143120)">
                    <mask id="mask-2" fill="white">
                        <use xlink:href="#path-1"></use>
                    </mask>
                    <g id="Clip-2"></g>
                    <path d="M27.2116884,21.45336 L23.9419783,21.45336 L22.7096594,18.96296 L21.4773406,21.45336 L18.2068333,21.45336 L15.2161087,21.45336 L15.2161087,13.52056 C15.2001667,12.86056 14.6573406,12.33336 13.9837899,12.33336 C13.3102391,12.33336 12.751471,12.86056 12.751471,13.52056 L12.751471,13.60296 L12.751471,21.45336 L12.6853116,21.45336 L9.4977029,21.45336 L9.4977029,13.50376 C9.48096377,12.84456 8.93893478,12.31656 8.26538406,12.31656 C7.59183333,12.31656 7.03306522,12.84456 7.03306522,13.50376 L7.03306522,21.45336 L3.76335507,21.45336 L3.76335507,10.40376 L7.03306522,10.40376 L7.03306522,11.69016 L7.08248551,11.69016 C7.39415217,11.21176 7.78871739,10.88216 8.2327029,10.68376 C8.67668841,10.50296 9.20197826,10.40376 9.8261087,10.40376 C10.4016159,10.40376 10.9277029,10.51896 11.3708913,10.76616 C11.8148768,10.99736 12.1759638,11.32696 12.4390072,11.75576 C12.8335725,11.29416 13.2608188,10.94776 13.7374855,10.73336 C14.2141522,10.51896 14.8056014,10.40376 15.4791522,10.40376 C15.8737174,10.40376 16.2348043,10.46936 16.5966884,10.56856 C16.9418333,10.68376 17.2535,10.83256 17.5165435,11.03016 C17.779587,11.22856 17.9932101,11.47576 18.157413,11.75576 C18.3216159,12.03656 18.4698768,12.53096 18.4698768,12.89416 L18.4698768,13.37176 L18.4698768,20.92536 L21.0006739,15.92856 L18.2068333,10.40376 L21.4773406,10.40376 L22.7096594,12.89416 L23.9419783,10.40376 L27.2116884,10.40376 L24.4186449,15.92856 L27.2116884,21.45336 Z M26.3739348,0.65656 L4.05907971,0.65656 C1.82400725,0.65656 0.000239130435,2.48696 0.000239130435,4.73016 L0.000239130435,27.12616 C0.000239130435,29.36936 1.82400725,31.19976 4.05907971,31.19976 L26.3739348,31.19976 C28.6082101,31.19976 30.4487174,29.36936 30.4328782,27.12616 L30.4328782,4.73016 C30.4328782,2.48696 28.6082101,0.65656 26.3739348,0.65656 L26.3739348,0.65656 Z" id="Fill-1" fill="#0A1325" mask="url(#mask-2)"></path>
                </g>
                <path d="M79.2035072,14.15856 L79.2035072,18.31456 L79.2035072,18.46256 L79.2035072,18.54496 L79.2035072,18.89216 C79.170029,19.36976 78.8416232,19.76576 78.3816957,19.91376 C78.266913,19.96336 78.1521304,19.98016 78.0206087,19.98016 L78.0038696,19.98016 L77.9871304,19.98016 C77.9871304,19.98016 76.4431449,20.27696 76.4431449,16.17056 C76.4431449,14.20816 76.8042319,13.25136 77.1653188,12.78976 C77.1987971,12.74016 77.2482174,12.69056 77.2808986,12.64176 C77.3462609,12.57536 77.4124203,12.52576 77.4777826,12.50896 C77.7575652,12.32736 77.9871304,12.37696 77.9871304,12.37696 C78.2007536,12.37696 78.3984348,12.44336 78.5785797,12.54176 C78.5953188,12.54176 78.5953188,12.55856 78.612058,12.55856 C78.9731449,12.77296 79.2202464,13.16896 79.2202464,13.63056 L79.2202464,13.76256 L79.2202464,14.15856 L79.2035072,14.15856 Z M82.4572754,8.93056 C82.4572754,7.39696 81.1755362,6.12656 79.531913,5.97856 C79.4171304,5.96176 79.3182899,5.96176 79.2035072,5.96176 L79.2035072,6.20896 L79.2035072,8.98016 L79.2035072,11.38816 C78.9237246,11.09136 78.628,10.87616 78.2995942,10.74416 C77.8564058,10.56336 77.3462609,10.46416 76.7388696,10.46416 C75.9003188,10.46416 75.2435072,10.64576 74.7995217,11.02496 C74.3395942,11.40416 74.0271304,11.86576 73.8135072,12.44336 C73.6166232,13.00416 73.5010435,13.63056 73.4851014,14.29056 C73.4683623,14.81776 73.4524203,15.29616 73.4524203,15.74176 L73.4524203,16.08816 C73.4524203,16.64896 73.4683623,17.27536 73.4851014,17.95136 C73.5177826,18.62736 73.6166232,19.25456 73.8135072,19.83136 C74.0103913,20.40896 74.3395942,20.90336 74.7995217,21.28336 C75.2594493,21.67856 75.933,21.87616 76.8042319,21.87616 C77.4610435,21.87616 78.0206087,21.77776 78.4805362,21.56336 C78.7435797,21.44816 78.9731449,21.28336 79.1867681,21.05216 L79.1867681,21.61296 L79.6961159,21.61296 L82.4572754,21.61296 L82.4572754,12.92176 L82.4572754,10.26656 L82.4572754,8.99616 L82.4572754,8.93056 Z" id="Fill-4" fill="#0A1325"></path>
                <path d="M55.8201377,13.59768 C55.8862971,12.93768 56.3789058,12.41048 57.0524565,12.41048 C57.7268043,12.41048 58.219413,12.83928 58.2847754,13.59768 C58.3341957,14.27368 58.3182536,14.34008 58.3015145,14.91688 L55.7380362,14.91688 C55.7707174,14.05928 55.7707174,14.07608 55.8201377,13.59768 M58.2688333,18.71048 C58.2520942,19.17208 57.8910072,19.55128 57.4310797,19.69928 C57.4143406,19.69928 57.1512971,19.76568 57.0365145,19.76568 C56.3789058,19.76568 55.9022391,19.45208 55.8033986,18.72728 C55.7053551,17.98488 55.7053551,16.59928 55.7053551,16.59928 L61.5218043,16.59928 C61.5218043,15.74168 61.5879638,14.94968 61.5058623,14.20808 C61.4237609,13.48248 61.2268768,12.83928 60.9311522,12.31128 C60.6186884,11.78328 60.1579638,11.35448 59.5505725,11.04168 C58.9423841,10.72808 58.1046304,10.58008 57.0691957,10.58008 C56.0505,10.58008 55.2286884,10.72808 54.6372391,11.00888 C54.0290507,11.30568 53.5850652,11.68488 53.2733986,12.17928 C52.9609348,12.67448 52.7640507,13.25128 52.6811522,13.89448 C52.5990507,14.55448 52.5504275,15.24728 52.5504275,15.97288 C52.5504275,16.79768 52.5990507,17.57208 52.6978913,18.26488 C52.7967319,18.95768 52.994413,19.56808 53.3060797,20.06248 C53.6185435,20.55768 54.078471,20.95288 54.6699203,21.23368 C55.2613696,21.51448 56.0672391,21.66248 57.0691957,21.66248 C57.7921667,21.66248 58.4330362,21.56328 58.9750652,21.38168 C59.5178913,21.20008 59.9778188,20.95288 60.3389058,20.62328 C61.0786159,19.98008 61.5218043,19.15528 61.5218043,18.26488 L58.2688333,18.26488 C58.2688333,18.24808 58.2847754,18.39688 58.2688333,18.71048" id="Fill-6" fill="#0A1325"></path>
                <path d="M51.1371667,13.03712 C51.1204275,12.67392 50.9729638,12.19632 50.8079638,11.89952 C50.6437609,11.61872 50.4301377,11.37152 50.1678913,11.17312 C49.9048478,10.97552 49.5923841,10.82672 49.2472391,10.71152 C48.8861522,10.61312 48.5242681,10.54672 48.1305,10.54672 C47.4561522,10.54672 46.8647029,10.66192 46.3880362,10.87632 C45.9113696,11.09072 45.4841232,11.43712 45.0903551,11.89952 C44.8273116,11.47072 44.4654275,11.14032 44.0222391,10.90912 C43.5782536,10.67872 43.0521667,10.54672 42.4774565,10.54672 C41.8533261,10.54672 41.3272391,10.64592 40.8832536,10.82672 C40.4400652,11.02512 40.0455,11.35472 39.7330362,11.83312 L39.6836159,11.83312 L39.6836159,10.54672 L36.4139058,10.54672 L36.4139058,21.57952 L39.6836159,21.57952 L39.6836159,13.63072 C39.6836159,12.97072 40.2423841,12.44352 40.9159348,12.44352 C41.5894855,12.44352 42.1323116,12.97072 42.1490507,13.63072 L42.1490507,21.57952 L45.4020217,21.57952 L45.4020217,13.66352 C45.4020217,13.00352 45.9607899,12.47632 46.6351377,12.47632 C47.3086884,12.47632 47.8507174,13.00352 47.8666594,13.66352 L47.8666594,21.59632 L51.1371667,21.59632 L51.1371667,16.02192 L51.1371667,13.03712 Z" id="Fill-8" fill="#0A1325"></path>
                <path d="M71.7594565,11.8992 C71.5952536,11.6184 71.3816304,11.3712 71.118587,11.1736 C70.8555435,10.9752 70.5438768,10.8272 70.1987319,10.712 C69.8368478,10.6128 69.4757609,10.5472 69.0811957,10.5472 C68.4403261,10.5472 67.9142391,10.6456 67.4869928,10.844 C67.0270652,11.0416 66.6325,11.3712 66.3367754,11.8328 L66.2873551,11.8328 L66.2873551,10.5472 L63.0176449,10.5472 L63.0176449,21.58 L66.2873551,21.58 L66.2873551,14.076 L66.2873551,13.6472 C66.2873551,12.9872 66.8461232,12.46 67.520471,12.46 C68.1940217,12.46 68.7360507,12.9872 68.7527899,13.6472 L68.7527899,21.58 L72.0225,21.58 L72.0225,12.872 C72.006558,12.5256 71.9236594,12.196 71.7594565,11.8992" id="Fill-10" fill="#0A1325"></path>
                <polygon id="Fill-12" fill="#0A1325" points="98.1003913 10.54688 94.8298841 10.54688 93.5983623 13.03728 92.3652464 10.54688 89.0955362 10.54688 91.8893768 16.07168 89.0955362 21.59648 92.3652464 21.59648 93.5983623 19.10608 94.8298841 21.59648 98.1003913 21.59648 95.3073478 16.07168"></polygon>
                <polygon id="Fill-14" fill="#0A1325" points="84.4457246 21.59672 87.7154348 21.59672 87.7154348 10.54712 84.4457246 10.54712"></polygon>
                <path d="M87.2060072,8.93048 L84.9709348,8.93048 C84.6919493,8.93048 84.461587,8.69928 84.461587,8.41928 L84.461587,6.47288 C84.461587,6.19288 84.6919493,5.96248 84.9709348,5.96248 L87.2060072,5.96248 C87.4849928,5.96248 87.7153551,6.19288 87.7153551,6.47288 L87.7153551,8.41928 C87.7153551,8.69928 87.4849928,8.93048 87.2060072,8.93048" id="Fill-16" fill="#0A1325"></path>
            </g>
        </g>
    </g>
</svg>